<?xml version="1.0" encoding="UTF-8" standalone="no"?>
<!-- Created with Inkscape (http://www.inkscape.org/) -->

<svg
   xmlns:dc="http://purl.org/dc/elements/1.1/"
   xmlns:cc="http://creativecommons.org/ns#"
   xmlns:rdf="http://www.w3.org/1999/02/22-rdf-syntax-ns#"
   xmlns:svg="http://www.w3.org/2000/svg"
   xmlns="http://www.w3.org/2000/svg"
   xmlns:xlink="http://www.w3.org/1999/xlink"
   xmlns:sodipodi="http://sodipodi.sourceforge.net/DTD/sodipodi-0.dtd"
   xmlns:inkscape="http://www.inkscape.org/namespaces/inkscape"
   width="900"
   height="675"
   id="svg2"
   version="1.1"
   inkscape:version="0.91 r13725"
   sodipodi:docname="busbus-quad.svg">
  <sodipodi:namedview
     id="base"
     pagecolor="#ffffff"
     bordercolor="#666666"
     borderopacity="1.0"
     inkscape:pageopacity="0.0"
     inkscape:pageshadow="2"
     inkscape:zoom="1"
     inkscape:cx="450"
     inkscape:cy="337.5"
     inkscape:document-units="in"
     inkscape:current-layer="layer1"
     showgrid="false"
     units="in"
     width="22in"
     inkscape:window-width="1920"
     inkscape:window-height="1041"
     inkscape:window-x="0"
     inkscape:window-y="0"
     inkscape:window-maximized="1"
     showguides="false"
     inkscape:guide-bbox="true"
     inkscape:snap-text-baseline="true"
     inkscape:snap-page="false"
     inkscape:snap-bbox="true"
     inkscape:bbox-nodes="true"
     inkscape:object-paths="false"
     inkscape:object-nodes="true"
     inkscape:bbox-paths="false"
     inkscape:snap-global="true"
     inkscape:snap-nodes="true">
    <sodipodi:guide
       inkscape:color="rgb(0,0,255)"
       inkscape:label=""
       id="guide3074"
       position="393.75,0"
       orientation="1,0" />
    <sodipodi:guide
       inkscape:color="rgb(0,0,255)"
       inkscape:label=""
       id="guide3082"
       position="0,517.5"
       orientation="0,1" />
    <sodipodi:guide
       inkscape:color="rgb(0,0,255)"
       inkscape:label=""
       id="guide3084"
       position="0,33.75"
       orientation="0,1" />
    <sodipodi:guide
       id="guide3086"
       position="67.5,0"
       orientation="1,0" />
    <sodipodi:guide
       id="guide3088"
       position="483.75,0"
       orientation="1,0" />
    <sodipodi:guide
       id="guide3090"
       position="832.5,0"
       orientation="1,0" />
    <sodipodi:guide
       inkscape:color="rgb(0,0,255)"
       inkscape:label=""
       id="guide3092"
       position="0,258.75"
       orientation="0,1" />
    <sodipodi:guide
       inkscape:color="rgb(0,0,255)"
       inkscape:label=""
       id="guide3094"
       position="0,281.25"
       orientation="0,1" />
    <sodipodi:guide
       id="guide3168"
       position="506.25,172"
       orientation="1,0" />
    <sodipodi:guide
       id="guide3170"
       position="810,171"
       orientation="1,0" />
    <sodipodi:guide
       id="guide3172"
       position="910,56.25"
       orientation="0,1" />
    <sodipodi:guide
       id="guide4132"
       position="1012,326.25"
       orientation="0,1" />
    <sodipodi:guide
       inkscape:color="rgb(0,0,255)"
       inkscape:label=""
       id="guide3502"
       orientation="0,1"
       position="0,652.5" />
    <sodipodi:guide
       inkscape:color="rgb(0,0,255)"
       inkscape:label=""
       id="guide3504"
       orientation="0,1"
       position="0,540" />
    <sodipodi:guide
       inkscape:color="rgb(0,0,255)"
       inkscape:label=""
       id="guide3630"
       orientation="0,1"
       position="696.15723,596.25" />
  </sodipodi:namedview>
  <defs
     id="defs4" />
  <metadata
     id="metadata7">
    <rdf:RDF>
      <cc:Work
         rdf:about="">
        <dc:format>image/svg+xml</dc:format>
        <dc:type
           rdf:resource="http://purl.org/dc/dcmitype/StillImage" />
        <dc:title />
      </cc:Work>
    </rdf:RDF>
  </metadata>
  <g
     sodipodi:insensitive="true"
     inkscape:label="background"
     id="layer2"
     inkscape:groupmode="layer">
    <rect
       y="0"
       x="0"
       height="675"
       width="900"
       id="rect4475"
       style="fill:#ffffff;fill-opacity:1;stroke:none;stroke-width:2.5;stroke-linejoin:round;stroke-miterlimit:4;stroke-dasharray:none;stroke-opacity:1" />
  </g>
  <g
     transform="translate(0,-377.3619)"
     id="layer1"
     inkscape:groupmode="layer"
     inkscape:label="Layer 1">
    <g
       transform="translate(0,11.250023)"
       id="g5294">
      <rect
         style="fill:none;stroke:#000000;stroke-width:2.5;stroke-linejoin:round;stroke-miterlimit:4;stroke-dasharray:none;stroke-opacity:1"
         id="rect3887"
         width="348.75"
         height="236.25002"
         x="67.5"
         y="512.36188" />
      <text
         sodipodi:linespacing="125%"
         id="text3889"
         y="554.10699"
         x="241.875"
         style="font-style:normal;font-variant:normal;font-weight:normal;font-stretch:normal;font-size:24px;line-height:125%;font-family:'DejaVu Sans';-inkscape-font-specification:'DejaVu Sans, Normal';text-align:center;letter-spacing:0px;word-spacing:0px;writing-mode:lr-tb;text-anchor:middle;fill:#0022b4;fill-opacity:1;stroke:none"
         xml:space="preserve"><tspan
           y="554.10699"
           x="241.875"
           id="tspan3891"
           sodipodi:role="line">Overview</tspan></text>
      <text
         xml:space="preserve"
         style="font-style:normal;font-variant:normal;font-weight:normal;font-stretch:normal;font-size:18px;line-height:125%;font-family:'DejaVu Sans';-inkscape-font-specification:'DejaVu Sans';text-align:start;letter-spacing:0px;word-spacing:0px;writing-mode:lr-tb;text-anchor:start;fill:#000000;fill-opacity:1;stroke:none"
         x="106.92"
         y="586.35699"
         id="text3909"
         sodipodi:linespacing="125%"><tspan
           sodipodi:role="line"
           x="106.92"
           y="586.35699"
           id="tspan3935">busbus is a platform for</tspan><tspan
           id="tspan4300"
           sodipodi:role="line"
           x="106.92"
           y="608.85699">accessing public transit data</tspan><tspan
           id="tspan4304"
           sodipodi:role="line"
           x="106.92"
           y="631.35699">using a common interface</tspan><tspan
           sodipodi:role="line"
           x="106.92"
           y="653.85699"
           id="tspan5043">Write once, use anywhere:</tspan><tspan
           sodipodi:role="line"
           x="106.92"
           y="676.35699"
           id="tspan5049">take your code from city to city</tspan><tspan
           sodipodi:role="line"
           x="106.92"
           y="698.85699"
           id="tspan5061">Provides a query interface</tspan><tspan
           sodipodi:role="line"
           x="106.92"
           y="721.35699"
           id="tspan5065">with rich filtering support</tspan></text>
      <text
         sodipodi:linespacing="125%"
         id="text3919"
         y="586.35699"
         x="84.419998"
         style="font-style:normal;font-variant:normal;font-weight:normal;font-stretch:normal;font-size:18px;line-height:125%;font-family:'DejaVu Sans';-inkscape-font-specification:'DejaVu Sans';text-align:start;letter-spacing:0px;word-spacing:0px;writing-mode:lr-tb;text-anchor:start;fill:#000000;fill-opacity:1;stroke:none"
         xml:space="preserve"><tspan
           id="tspan3923"
           y="586.35699"
           x="84.419998"
           sodipodi:role="line">•</tspan><tspan
           y="608.85699"
           x="84.419998"
           sodipodi:role="line"
           id="tspan3927" /><tspan
           y="631.35699"
           x="84.419998"
           sodipodi:role="line"
           id="tspan3929" /><tspan
           id="tspan4240"
           y="653.85699"
           x="84.419998"
           sodipodi:role="line">•</tspan><tspan
           y="676.35699"
           x="84.419998"
           sodipodi:role="line"
           id="tspan3958" /><tspan
           y="698.85699"
           x="84.419998"
           sodipodi:role="line"
           id="tspan3960">•</tspan></text>
    </g>
    <g
       transform="translate(0,2.2558594e-5)"
       id="g5284">
      <image
         sodipodi:absref="/home/ianweller/projects/busbus-quadchart/ledboard cmyk.jpeg"
         xlink:href="ledboard cmyk.jpeg"
         width="309.80096"
         height="78.75"
         preserveAspectRatio="none"
         id="image4828"
         x="86.974518"
         y="917.36194" />
      <rect
         style="fill:none;stroke:#000000;stroke-width:2.5;stroke-linejoin:round;stroke-miterlimit:4;stroke-dasharray:none;stroke-opacity:1"
         id="rect4552"
         width="348.75"
         height="236.25002"
         x="67.5"
         y="782.36188" />
      <text
         sodipodi:linespacing="125%"
         id="text4554"
         y="824.10699"
         x="241.875"
         style="font-style:normal;font-variant:normal;font-weight:normal;font-stretch:normal;font-size:24px;line-height:125%;font-family:'DejaVu Sans';-inkscape-font-specification:'DejaVu Sans, Normal';text-align:center;letter-spacing:0px;word-spacing:0px;writing-mode:lr-tb;text-anchor:middle;fill:#0022b4;fill-opacity:1;stroke:none"
         xml:space="preserve"><tspan
           y="824.10699"
           x="241.875"
           id="tspan4556"
           sodipodi:role="line">Applications</tspan></text>
      <text
         xml:space="preserve"
         style="font-style:normal;font-variant:normal;font-weight:normal;font-stretch:normal;font-size:18px;line-height:125%;font-family:'DejaVu Sans';-inkscape-font-specification:'DejaVu Sans';text-align:start;letter-spacing:0px;word-spacing:0px;writing-mode:lr-tb;text-anchor:start;fill:#000000;fill-opacity:1;stroke:none"
         x="90.689941"
         y="856.35699"
         id="text4558"
         sodipodi:linespacing="125%"><tspan
           id="tspan3232"
           sodipodi:role="line"
           x="90.689941"
           y="856.35699">Team developed Android app,</tspan><tspan
           id="tspan4299"
           sodipodi:role="line"
           x="90.689941"
           y="878.85699">web app and LED display to</tspan><tspan
           id="tspan4306"
           sodipodi:role="line"
           x="90.689941"
           y="901.35699">showcase the busbus API</tspan></text>
    </g>
    <g
       transform="translate(0,11.250023)"
       id="g5342">
      <rect
         y="512.36188"
         x="483.75"
         height="236.25002"
         width="348.75"
         id="rect4054"
         style="fill:none;stroke:#000000;stroke-width:2.5;stroke-linejoin:round;stroke-miterlimit:4;stroke-dasharray:none;stroke-opacity:1" />
      <text
         xml:space="preserve"
         style="font-style:normal;font-variant:normal;font-weight:normal;font-stretch:normal;font-size:24px;line-height:125%;font-family:'DejaVu Sans';-inkscape-font-specification:'DejaVu Sans, Normal';text-align:center;letter-spacing:0px;word-spacing:0px;writing-mode:lr-tb;text-anchor:middle;fill:#0022b4;fill-opacity:1;stroke:none"
         x="658.125"
         y="554.10699"
         id="text4056"
         sodipodi:linespacing="125%"><tspan
           sodipodi:role="line"
           id="tspan4058"
           x="658.125"
           y="554.10699">Try this at home</tspan></text>
      <g
         id="g4624">
        <rect
           y="593.99188"
           x="506.02499"
           height="108.27"
           width="304.20001"
           id="rect4570"
           style="fill:#e6e6e6;fill-opacity:1;stroke:none;stroke-width:2.5;stroke-linejoin:round;stroke-miterlimit:4;stroke-dasharray:none;stroke-opacity:1" />
        <text
           sodipodi:linespacing="125%"
           id="text4444"
           y="608.91339"
           x="515.02228"
           style="font-style:normal;font-variant:normal;font-weight:normal;font-stretch:normal;font-size:14px;line-height:125%;font-family:'DejaVu Sans Mono';-inkscape-font-specification:'DejaVu Sans Mono, Normal';text-align:start;letter-spacing:0px;word-spacing:0px;writing-mode:lr-tb;text-anchor:start;fill:#000000;fill-opacity:1;stroke:none"
           xml:space="preserve"><tspan
             style="font-size:13.75px"
             y="608.91339"
             x="515.02228"
             sodipodi:role="line"
             id="tspan4456"><tspan
   style="font-size:13.75px;fill:#a71d5d;fill-opacity:1"
   id="tspan4294">from</tspan> busbus.provider.mbta \</tspan><tspan
             style="font-size:13.75px"
             id="tspan4496"
             y="626.10089"
             x="515.02228"
             sodipodi:role="line"><tspan
   style="font-size:13.75px;fill:#a71d5d;fill-opacity:1"
   id="tspan4296">      import</tspan> MBTAProvider</tspan><tspan
             style="font-size:13.75px"
             id="tspan4498"
             y="643.28839"
             x="515.02228"
             sodipodi:role="line">mbta <tspan
   style="font-size:13.75px;fill:#a71d5d;fill-opacity:1"
   id="tspan4309">=</tspan> MBTAProvider(<tspan
   style="font-size:13.75px;fill:#df5000;fill-opacity:1"
   id="tspan4311">'api-key'</tspan>)</tspan><tspan
             style="font-size:13.75px"
             id="tspan4502"
             y="660.47589"
             x="515.02228"
             sodipodi:role="line"><tspan
   style="font-size:13.75px;fill:#a71d5d;fill-opacity:1"
   id="tspan4298">for</tspan> r <tspan
   style="font-size:13.75px;fill:#a71d5d;fill-opacity:1"
   id="tspan4301">in</tspan> mbta.routes.where(</tspan><tspan
             style="font-size:13.75px"
             id="tspan4506"
             y="677.66339"
             x="515.02228"
             sodipodi:role="line"><tspan
   style="font-size:13.75px;fill:#a71d5d;fill-opacity:1"
   id="tspan4303">      lambda</tspan><tspan
   style="font-size:13.75px;fill:#333333;fill-opacity:1"
   id="tspan4313"> r</tspan>: <tspan
   style="font-size:13.75px;fill:#0086b3;fill-opacity:1"
   id="tspan4335">len</tspan>(r.stops) <tspan
   style="font-size:13.75px;fill:#a71d5d;fill-opacity:1"
   id="tspan4307">&gt;</tspan><tspan
   style="font-size:13.75px;fill:#0086b3;fill-opacity:1"
   id="tspan4337"> 10</tspan>):</tspan><tspan
             style="font-size:13.75px"
             id="tspan4508"
             y="694.85089"
             x="515.02228"
             sodipodi:role="line"><tspan
   style="font-size:13.75px;fill:#a71d5d;fill-opacity:1"
   id="tspan4305">    print</tspan>(r.name)</tspan></text>
      </g>
      <text
         xml:space="preserve"
         style="font-style:normal;font-variant:normal;font-weight:normal;font-stretch:normal;font-size:18px;line-height:125%;font-family:'DejaVu Sans';-inkscape-font-specification:'DejaVu Sans';text-align:start;letter-spacing:0px;word-spacing:0px;writing-mode:lr-tb;text-anchor:start;fill:#000000;fill-opacity:1;stroke:none"
         x="506.93994"
         y="586.35699"
         id="text4076"
         sodipodi:linespacing="125%"><tspan
           sodipodi:role="line"
           x="506.93994"
           y="586.35699"
           id="tspan4170">Get transit data with Python...</tspan></text>
      <text
         sodipodi:linespacing="125%"
         id="text4503"
         y="721.35699"
         x="506.93994"
         style="font-style:normal;font-variant:normal;font-weight:normal;font-stretch:normal;font-size:18px;line-height:125%;font-family:'DejaVu Sans';-inkscape-font-specification:'DejaVu Sans';text-align:start;letter-spacing:0px;word-spacing:0px;writing-mode:lr-tb;text-anchor:start;fill:#000000;fill-opacity:1;stroke:none"
         xml:space="preserve"><tspan
           id="tspan4505"
           y="721.35699"
           x="506.93994"
           sodipodi:role="line"
           style="letter-spacing:-0.25px">... or host busbus as a web service</tspan></text>
    </g>
    <g
       transform="translate(0,2.2117187e-5)"
       id="g3427">
      <rect
         style="fill:none;stroke:#000000;stroke-width:2.5;stroke-linejoin:round;stroke-miterlimit:4;stroke-dasharray:none;stroke-opacity:1"
         id="rect5125"
         width="348.75"
         height="236.25002"
         x="483.75"
         y="782.36188" />
      <text
         sodipodi:linespacing="125%"
         id="text5127"
         y="824.10699"
         x="658.125"
         style="font-style:normal;font-variant:normal;font-weight:normal;font-stretch:normal;font-size:24px;line-height:125%;font-family:'DejaVu Sans';-inkscape-font-specification:'DejaVu Sans, Normal';text-align:center;letter-spacing:0px;word-spacing:0px;writing-mode:lr-tb;text-anchor:middle;fill:#0022b4;fill-opacity:1;stroke:none"
         xml:space="preserve"><tspan
           y="824.10699"
           x="658.125"
           id="tspan5129"
           sodipodi:role="line">Learn more</tspan></text>
      <rect
         style="fill:#e6e6e6;fill-opacity:1;stroke:none;stroke-width:2.5;stroke-linejoin:round;stroke-miterlimit:4;stroke-dasharray:none;stroke-opacity:1"
         id="rect5244"
         width="235.62"
         height="31.049999"
         x="540.26227"
         y="842.68121" />
      <text
         xml:space="preserve"
         style="font-style:normal;font-variant:normal;font-weight:bold;font-stretch:normal;font-size:18px;line-height:125%;font-family:'DejaVu Sans Mono';-inkscape-font-specification:'DejaVu Sans Mono, Bold';text-align:center;letter-spacing:0px;word-spacing:0px;writing-mode:lr-tb;text-anchor:middle;fill:#000000;fill-opacity:1;stroke:none"
         x="658.125"
         y="863.2204"
         id="text5131"
         sodipodi:linespacing="125%"><tspan
           id="tspan5186"
           sodipodi:role="line"
           x="658.125"
           y="863.2204">$ pip install busbus</tspan></text>
      <text
         xml:space="preserve"
         style="font-style:normal;font-variant:normal;font-weight:normal;font-stretch:normal;font-size:18px;line-height:125%;font-family:'DejaVu Sans';-inkscape-font-specification:'DejaVu Sans';text-align:start;letter-spacing:0px;word-spacing:0px;writing-mode:lr-tb;text-anchor:start;fill:#000000;fill-opacity:1;stroke:none"
         x="523.16998"
         y="901.35699"
         id="text5212"
         sodipodi:linespacing="125%"><tspan
           sodipodi:role="line"
           x="523.16998"
           y="901.35699"
           id="tspan4318">Integrate transit data into your</tspan><tspan
           sodipodi:role="line"
           x="523.16998"
           y="923.85699"
           id="tspan4330">projects with less effort</tspan><tspan
           sodipodi:role="line"
           x="523.16998"
           y="946.35699"
           id="tspan4280">Demos and documentation:</tspan><tspan
           sodipodi:role="line"
           x="523.16998"
           y="968.85699"
           id="tspan4260"
           style="fill:#001a8c;fill-opacity:1">github.com/spaceboats/busbus</tspan><tspan
           sodipodi:role="line"
           x="523.16998"
           y="991.35699"
           id="tspan4336">Open source project, join us!</tspan></text>
      <text
         xml:space="preserve"
         style="font-style:normal;font-variant:normal;font-weight:normal;font-stretch:normal;font-size:18px;line-height:125%;font-family:'DejaVu Sans';-inkscape-font-specification:'DejaVu Sans';text-align:start;letter-spacing:0px;word-spacing:0px;writing-mode:lr-tb;text-anchor:start;fill:#000000;fill-opacity:1;stroke:none"
         x="500.66998"
         y="901.35699"
         id="text5224"
         sodipodi:linespacing="125%"><tspan
           sodipodi:role="line"
           x="500.66998"
           y="901.35699"
           id="tspan5230">•</tspan><tspan
           sodipodi:role="line"
           x="500.66998"
           y="923.85699"
           id="tspan4262" /><tspan
           sodipodi:role="line"
           x="500.66998"
           y="946.35699"
           id="tspan4324">•</tspan><tspan
           sodipodi:role="line"
           x="500.66998"
           y="968.85699"
           id="tspan4272" /><tspan
           sodipodi:role="line"
           x="500.66998"
           y="991.35699"
           id="tspan4290">•</tspan></text>
    </g>
    <g
       transform="translate(0,13.997467)"
       id="g3495">
      <text
         xml:space="preserve"
         style="font-style:normal;font-variant:normal;font-weight:normal;font-stretch:normal;font-size:27.5px;line-height:125%;font-family:'DejaVu Sans';-inkscape-font-specification:'DejaVu Sans, Normal';text-align:center;letter-spacing:0px;word-spacing:0px;writing-mode:lr-tb;text-anchor:middle;fill:#e8000d;fill-opacity:1;stroke:none"
         x="450"
         y="449.2572"
         id="text3064"
         sodipodi:linespacing="125%"><tspan
           id="tspan3469"
           sodipodi:role="line"
           x="450"
           y="449.2572"
           style="font-style:normal;font-variant:normal;font-weight:normal;font-stretch:normal;font-size:27.5px;line-height:125%;font-family:'DejaVu Sans';-inkscape-font-specification:'DejaVu Sans, Normal';text-align:center;writing-mode:lr-tb;text-anchor:middle;fill:#e8000d;fill-opacity:1">busbus: Public transit data platform</tspan></text>
      <text
         sodipodi:linespacing="125%"
         id="text3447"
         y="469.92691"
         x="450.72168"
         style="font-style:normal;font-variant:normal;font-weight:normal;font-stretch:normal;font-size:13.75px;line-height:125%;font-family:'DejaVu Sans';-inkscape-font-specification:'DejaVu Sans, Normal';text-align:center;letter-spacing:0px;word-spacing:0px;writing-mode:lr-tb;text-anchor:middle;fill:#4d4d4d;fill-opacity:1;stroke:none;stroke-width:1px;stroke-linecap:butt;stroke-linejoin:miter;stroke-opacity:1"
         xml:space="preserve"><tspan
           id="tspan3510"
           y="469.92691"
           x="450.72168"
           sodipodi:role="line">Alex Gustafson, Ian Weller, Monica Shafii, Nick Gilliland, Zane Ralston</tspan><tspan
           id="tspan3514"
           y="487.11441"
           x="450.72168"
           sodipodi:role="line">EECS Computer Science Capstone — Spring 2015 — Team blog: spaceboats.github.io</tspan></text>
    </g>
    <g
       id="g3751"
       inkscape:label="ink_ext_XXXXXX"
       transform="matrix(0.16245055,0,0,-0.16245055,67.49999,457.73911)">
      <g
         id="g3753"
         transform="scale(0.1,0.1)">
        <path
           d="m 646.07,761.512 c -13.515,-10.973 -23.644,-21.114 -23.644,-25.34 0,-4.231 -0.848,-20.262 -3.379,-27.871 -2.527,-7.61 2.531,-28.711 5.91,-29.563 3.379,-0.847 17.742,5.922 33.789,11.832 16.047,5.91 35.469,16.039 35.469,16.039 0,0 -6.758,16.903 -9.289,27.871 -2.528,10.981 -6.758,33.79 -7.598,39.7 -0.84,5.91 -7.605,10.992 -7.605,10.992 0,0 -10.137,-12.684 -23.653,-23.66 z m 306.602,63.347 c -4.219,-28.718 5.066,-52.371 2.539,-65.027 -2.531,-12.672 -15.207,-54.91 -15.207,-54.91 0,0 8.449,2.539 21.965,4.098 14.062,1.64 17.734,3.511 18.574,6.89 0.84,3.379 -3.977,28.711 -3.977,40.539 0,11.821 5.664,38.852 8.204,70.102 2.539,31.25 -9.297,40.539 -9.297,40.539 0,0 -19.453,-19.418 -22.801,-42.231 z M 3916.44,2712.62 c -50.83,19.16 -155.83,45.83 -306.41,35.63 -83.54,-5.65 -263.07,-53.98 -263.07,-53.98 0,0 119.4,-108.98 250.5,-189.18 149.82,-91.65 261.45,-136.39 266.69,-139.01 5.23,-2.62 3.01,-8.44 -0.14,-10.54 -3.14,-2.09 -80.9,-19.6 -197.38,-54.3 -107.66,-32.08 -199.35,-77.8 -438.1,-133.11 -326.02,-75.53 -693.32,-39.3 -693.85,-38.78 -0.53,0.52 -2.09,-13.1 -4.72,-24.63 -2.63,-11.53 -7.33,-24.1 -6.81,-24.63 0.53,-0.53 60.68,1.57 165.08,-2.37 139.42,-5.26 171.92,-27.81 179.22,-65.76 8.88,-46.13 -34.45,-75.7 -34.45,-75.7 0,0 154.16,2.07 188.52,-108.23 30.1,-96.61 -92.7,-212.2 -153.54,-255.73 -60.64,-43.39 -283.32,-147.3 -494.71,-299.77 -137.6,-99.25 -332.77,-275.132 -335.39,-279.839 -2.62,-4.722 -4.2,-3.152 -1.05,-6.82 3.14,-3.672 78.18,-49.641 123.63,-91.441 44.65,-41.059 86.52,-99.309 86.52,-99.309 0,0 7.68,0.719 46.64,87.52 19.87,44.257 26.74,94.89 31.96,101.148 10.74,12.883 58.16,17.811 61.3,20.961 3.15,3.14 24.11,47.76 61.31,81.3 37.21,33.53 61.27,42.52 75.94,48.28 14.67,5.76 1.37,82.34 57.71,175.43 67.1,110.86 169.97,126.93 292.82,101.91 135,-27.5 202.91,-159.55 202.91,-159.55 0,0 48.19,6.63 82.09,-62.7 C 3183.82,1140 3178,1052.5 3135.56,919.332 3108,832.879 3029.66,647.5 2886.83,492.211 2749.68,343.082 2670.93,313.969 2670.93,313.969 c 0,0 -27.1,-88.969 -104.3,-184.938 C 2521.96,73.5 2424.19,-0.648438 2359.66,0 c -82.5,0.839844 -105.35,64.0391 -121.08,74 -15.72,9.9688 -64.12,28.762 -83.84,51.891 -28.42,33.281 -52.41,88.57 -52.41,88.57 0,0 -51.17,-8.402 -116.01,-69.461 C 1872.16,37.5 1906.28,2.21094 1893.83,1.67188 1874.66,0.839844 1834.66,102.5 1926.78,240.172 c 45.94,68.668 100.09,85.418 100.09,87.519 0,2.098 -20.92,5.739 -37.21,18.457 -17.45,13.641 -22.87,26.59 -22.54,24.864 l -13.03,5.929 c 0,0 25.57,-52.769 16.71,-57.109 -23.81,-11.684 -75.33,20.938 -120.53,48.328 -59.77,36.238 -74.49,58.051 -79.21,57.52 -4.71,-0.52 -8.76,-42.961 -34.96,-47.68 -26.2,-4.719 -45.34,13.031 -76.78,36.078 -31.45,23.063 -61.5,72.07 -61.5,72.07 0,0 -10.48,-38.976 -69.18,-163.707 -58.7,-124.722 -103.08,-153.32 -146.85,-151.441 -54.62,2.332 -80.72,47.16 -80.72,47.16 0,0 -188.49,-91.41 -393.574,-114.25 C 655.492,75.8398 505.543,142.691 496.625,143.199 487.711,143.719 447.164,122.5 343.824,120 247.75,117.68 125.961,150.57 71.293,220.449 13.7148,294.051 47.9922,364.172 47.9922,364.172 c 0,0 -9.1602,19.16 -15.1563,59.43 -3.7382,25.136 11.8282,94.73 83.3321,128.929 69.715,33.34 141.504,-19.89 141.504,-19.89 0,0 8.906,12.05 19.914,20.961 11.004,8.898 23.062,15.718 23.062,15.718 0,0 -0.722,9.43 -1.25,16.762 -0.527,7.34 0.196,13.637 0.196,13.637 0,0 -23.055,2.621 -51.356,5.23 -28.3,2.621 -86.465,18.871 -109.004,23.59 -22.539,4.711 -37.726,2.102 -42.441,5.762 -4.7188,3.66 18.008,19.39 47.871,29.871 29.863,10.476 125.828,46.66 187.422,61.719 78.894,19.289 94.336,11.66 94.336,11.66 0,0 3.672,17.289 8.387,27.25 4.718,9.949 9.425,23.078 8.906,23.078 -0.516,0 -21.082,19.062 -28.945,44.742 -8.094,26.43 -7.051,23.551 -8.27,64.258 0,0 -20.441,-5.238 -49.258,-2.09 -28.82,3.141 -68.195,34.211 -64.465,79.133 5.215,62.748 59.739,97.998 60.782,100.608 1.046,2.62 -20.848,9.12 -68.653,33.54 -52.742,26.93 -66.511,46.97 -64.414,56.93 2.102,9.96 21.446,9.1 38.215,9.1 16.766,0 31.445,-2.61 33.016,0 1.574,2.62 -58.973,28.82 -86.231,45.07 -27.254,16.25 -113.3279,61.66 -118.1639,85.44 -4.0508,19.95 93.2739,6.82 91.6989,9.96 -1.57,3.15 -16.035,-3.73 -95.3786,47.7 -36.6601,23.76 -88.15621,76.9 -83.331994,88.56 4.054684,9.81 41.847694,8.34 76.847694,-3.32 29.7149,-9.9 71.9919,-18.14 71.9919,-18.14 0,0 -26.164,23.14 -18.34,41.92 12.254,29.43 125.508,-17.95 132.09,-9.42 2.957,3.82 -24.121,25.67 -65.527,68.11 -41.406,42.44 -45.07,64.17 -41.055,74.2 5,12.5 19.571,8.6 34.766,9.65 15.195,1.04 36.152,2.1 35.105,4.72 -1.043,2.61 -50.312,91.71 -65.507,116.86 -15.196,25.16 -92.6958,167.93 -38.778,197.03 53.68,28.98 154.199,-94.53 158.399,-95.05 4.199,-0.52 -7.317,29.28 15.066,38.45 20.793,8.51 51.789,-29.17 61.32,-21.5 2.383,1.92 -21.984,40.57 -37.734,82.28 -15.125,40.05 -43.391,90.25 -7.023,126.95 41.054,41.44 130.226,-114.4 130.226,-114.4 0,0 -37.5,140.84 -51.934,241.09 -13.535,93.97 -23.894,181.41 33.543,205.41 37.813,15.81 77.571,-47.16 113.204,-97.99 35.636,-50.84 74.406,-160.36 77.023,-161.4 2.617,-1.05 1.492,77.89 33.555,80.18 17.812,1.27 34.539,-48.75 51.355,-103.76 19.926,-65.19 41.399,-103.76 43.496,-103.76 2.102,0 3.664,82.79 0.52,162.45 -3.145,79.66 -1.133,159.64 43.41,162.78 44.539,3.15 92.574,-107.19 111.656,-158.33 19.328,-51.8 57.5,-176.67 67.676,-177.92 5.293,-0.65 -1.648,59.73 48.682,60.46 53.65,0.79 100.17,-205.09 100.17,-205.09 0,0 88.48,48.38 149.31,60.88 66.77,13.72 141.54,10.91 141.54,10.91 0,0 -17.28,8.91 -90.14,18.34 -72.85,9.44 -103.9,4.09 -120.53,42.72 -15.52,36.05 27.47,63.03 58.17,71.37 23.51,6.39 86.47,11.14 92.24,15.33 5.77,4.19 8.61,29.75 13.22,41.54 4.89,12.53 15.08,31.31 15.08,31.31 0,0 -37.91,-20.68 -84.38,-27.25 -53.42,-7.56 -84.53,1.86 -86.14,5.51 -2.72,6.17 28.23,48.18 38.72,69.15 10.49,20.96 22.26,65.78 22.26,65.78 0,0 -29.22,-7.54 -47.56,-10.68 -18.34,-3.14 -50.81,-6.53 -57.77,-1.38 -6.06,4.48 39.46,77.35 56.12,129.02 23.62,73.25 28.11,131.29 28.11,131.29 0,0 -16.38,-6.17 -24.77,-8.79 -8.39,-2.63 -35.89,-19.9 -41.12,-15.18 -5.24,4.72 35.1,129.44 42.96,171.89 7.87,42.46 34.54,95.26 34.54,95.26 0,0 -48.88,-11.97 -115.14,12.64 -40.83,15.16 -82.07,87.89 -69.57,87.06 63.4,-4.23 110,20.83 183.33,90.12 49.34,46.62 152.5,207.03 180,232.03 44.04,40.04 94.84,37.37 100,40.35 15.83,9.17 42.5,150.14 266.15,231.51 175.9,63.99 329.28,14.37 378.01,-3.18 10.19,-3.67 16.52,-1.14 16.52,-1.14 0,0 71,116.58 200.14,122.81 120.84,5.84 255.84,-93.33 255.84,-93.33 0,0 39.16,55 171.65,18.26 69.9,-19.38 173.35,-118.26 173.35,-118.26 260.84,88.33 630.76,40.29 865.65,-211.8 240.19,-257.79 152.8,-503.1 152.8,-503.1 0,0 -36.58,35.68 -96.67,58.34"
           style="fill:#1967b8;fill-opacity:1;fill-rule:nonzero;stroke:none"
           id="path3755"
           inkscape:connector-curvature="0" />
        <path
           d="m 3344.46,2530.23 c -3.02,2.01 -50.62,18.28 -92.18,39.38 -33.82,17.16 -99.22,55.31 -99.22,55.31 0,0 -11.05,7.11 -24.07,2.65 -45.15,-15.46 -133.12,-46.25 -181.79,-63.99 -49.67,-18.12 -176.6,-74.69 -201.84,-83.77 -25.22,-9.08 -33.86,-15.39 -41.99,-15.68 -21.56,-0.78 -39.84,-6.56 -28.91,-13.28 1.87,-1.14 138.6,-2.03 230,-0.16 110,2.26 259.77,2.9 271.88,3.91 15.04,1.25 38.75,11.41 89.75,37.32 52.35,26.6 63.46,28.25 72.59,31.12 13.91,4.37 5.78,7.19 5.78,7.19"
           style="fill:#e51635;fill-opacity:1;fill-rule:nonzero;stroke:none"
           id="path3757"
           inkscape:connector-curvature="0" />
        <path
           d="m 2947.69,3350.46 c 0,0 -29.15,48.64 -106.15,84.28 -53.05,24.55 -93.71,29.71 -116.3,27.1 -17.57,-2.02 -38.64,-10.62 -39.54,-22.59 -0.52,-7.04 10.66,-13.9 27.03,-22.17 19.8,-9.99 33.18,-12.41 35.76,-17.59 2.59,-5.17 7.34,-17.07 3.04,-17.59 -21.73,-2.61 -45.97,6.46 -57.79,13.03 -30.41,16.95 -101.23,66.92 -151.86,95.66 -51.59,29.29 -103.01,43.86 -176.53,30.73 -89.79,-16.03 -143.02,-106.4 -143.02,-106.4 0,0 57.36,-35.63 92.99,-54.75 33.18,-17.8 47.33,-23.48 73.21,-26.07 25.88,-2.58 51.05,-2.48 53.04,-10.17 1.7,-6.55 -11.85,-22.68 -31.32,-22.85 -50.18,-0.43 -37.25,-5.08 -204.86,81.62 -148.8,76.98 -272.66,54.29 -275.13,53.91 -16.62,-2.57 -176.75,-18.87 -280.98,-117.86 -56.11,-53.29 -76.76,-113.36 -75.22,-123.68 2.82,-18.9 12.17,-23.24 18.34,-40.06 5.43,-14.8 5.17,-42.83 -3.23,-41.42 -10.55,1.76 -27.51,56.35 -70.96,57.15 -23.45,0.44 -56.53,1.53 -121.27,-101.18 -42.34,-67.18 -99.11,-133.9 -121.75,-157.2 -22.65,-23.3 -85.7,-75.18 -105.69,-82.68 -38.23,-14.34 -45.86,-5.25 -48.45,-9.78 -2.58,-4.53 18.75,-36.06 75.61,-40.4 74.07,-5.65 133.39,41.05 136.64,39.32 1.27,-0.68 -49.94,-86.82 -63.86,-124.65 -15.44,-41.98 -20.87,-69.57 -29.12,-94.49 -7.74,-23.39 -12.2,-47.92 -17.17,-56.11 -2.51,-4.14 62.59,14.42 106.24,46.93 51.07,38.02 74.31,71.69 74.31,71.69 0,0 -3.48,-54.77 -46.88,-88.21 -40.96,-31.55 -69.98,-41.73 -80.44,-56.91 -1.92,-2.78 -2.7,-60.16 -17.93,-109.63 -27.04,-87.84 -53.55,-127.81 -53.55,-127.81 0,0 43.85,0.49 105.32,40.43 59.8,38.86 85.22,66.23 85.22,66.23 0,0 5,-33.46 -37.36,-70.61 -35.43,-31.06 -51.62,-36.49 -55.19,-41.27 -1.95,-2.61 -10.15,-44.08 -17.91,-66.32 -11.43,-32.74 -31.52,-58.81 -28.58,-62.94 3.25,-4.56 60.39,6.96 125.65,51.94 43.7,30.12 92.55,61.49 92.55,61.49 0,0 -32.15,-43.59 -55.25,-93.66 -28.47,-61.69 -42.81,-95.8 -39.23,-136.11 0.2,-2.33 40.1,20.11 76.17,32.49 27.88,9.57 61.04,18.47 98.57,60.7 27.14,30.54 58.25,67.31 58.25,67.31 0,0 -16.53,-41.39 -22.99,-80.22 -6.47,-38.83 -7.39,-96.24 -2.61,-101.45 2.47,-2.7 94.46,53.37 122.77,85.81 44.55,51.05 82.8,122.09 82.8,122.09 0,0 2.6,-3.94 3.25,-8.47 0.64,-4.53 -8.04,-94.07 -5.22,-126.87 3.4,-39.52 5.43,-49.96 8.26,-101.01 0.75,-13.59 -0.84,-23.48 2.39,-25.42 3.23,-1.95 7.92,5.03 20.86,10.86 12.94,5.83 98.15,37.5 145.56,79.72 83.2,74.08 101.2,120.37 101.2,120.37 0,0 -17.78,-93.64 -19.08,-126.89 -2.17,-54.97 4.61,-144.05 11.08,-148.58 6.46,-4.53 34.75,22.37 70.39,42.79 17.44,10 51.17,27.77 107.31,103.63 35.28,47.65 61.09,81.29 65.25,82.45 4.27,1.18 -22.91,-71.76 -23.11,-95.7 -0.21,-26.72 12.7,-69.31 19.55,-87.99 5.43,-14.77 6.74,-22.81 11.08,-43.45 0,0 62.36,60.61 100.56,100.94 86.27,91.1 80.84,142.59 80.84,142.59 -128.17,14.12 -249.63,55.9 -325,83.2 -197.9,71.69 -307.9,162.48 -422.56,270.03 -66.47,62.34 -88.46,125.73 -74.32,158.5 8.28,19.2 27.6,27.02 27.6,27.02 0,0 -96.23,112.75 -81.68,214.2 8.53,59.55 93.66,82.73 251.81,52.35 202.39,-38.87 407.77,-153.6 407.77,-153.6 0,0 -78.03,54.19 -108.44,96.91 -30.43,42.71 -45.96,76.36 -45.96,76.36 0,0 -52.77,-8.6 -108.09,5.83 -55.46,14.47 -107.77,25.21 -147.26,94.59 -12,21.08 3.57,13.3 20.44,-8.44 1.26,-1.62 13.62,-12.65 31.13,-13.62 22,-1.22 88.76,9.34 188.14,96.34 103.39,90.54 191.7,158.64 253.18,134.7 61.47,-23.95 83.49,-81.55 47.25,-128.79 -36.25,-47.25 -44.67,-66.66 -44.67,-66.66 0,0 13.59,-8.42 33.65,-29.13 20.07,-20.71 42.07,-40.77 42.07,-40.77 0,0 70.57,88.66 246.6,201.92 176.04,113.26 262.78,145.01 262.78,145.01"
           style="fill:#e51635;fill-opacity:1;fill-rule:nonzero;stroke:none"
           id="path3759"
           inkscape:connector-curvature="0" />
        <path
           d="m 2575.93,873.582 c -3.69,3.688 -64.87,30.52 -103.19,37.309 -36.38,6.449 -99.95,0.461 -103.18,-1.391 -3.22,-1.84 -18.42,-44.66 -24.41,-62.168 -5.99,-17.512 -24.07,-59.871 -22.57,-62.191 4.15,-6.461 37.77,8.75 100.42,-7.832 54,-14.297 95.35,-35.008 98.11,-35.469 2.77,-0.461 12.9,34.551 25.79,64.949 10.26,24.18 25.35,58.043 27.19,60.801 1.84,2.762 1.84,5.992 1.84,5.992 z m 88.9,15.199 c -3.23,-4.609 -33.59,-61.941 -52.52,-99.5 -32.24,-64.019 -36.84,-119.761 -47.44,-122.992 -4.74,-1.449 -57.12,29.481 -134.04,45.609 -60.03,12.571 -140.96,15.204 -143.72,15.661 -2.76,0.461 -4.15,3.679 -5.99,6.902 -1.83,3.23 -5.07,8.75 -5.99,10.141 -0.92,1.386 -1.84,4.136 -2.3,7.367 -0.46,3.242 0.46,11.519 1.38,15.66 0.93,4.141 38.03,81.992 45.86,105.492 7.83,23.488 28.56,80.609 35.01,84.289 6.44,3.68 67.45,24.422 168.33,4.149 72.49,-14.559 137.27,-52.977 144.65,-65.879 0,0 0,-2.289 -3.23,-6.899"
           style="fill:#e51635;fill-opacity:1;fill-rule:nonzero;stroke:none"
           id="path3761"
           inkscape:connector-curvature="0" />
        <path
           d="m 837.586,631.629 c -14.223,15.293 -34.359,35.961 -37.57,36.5 -3.215,0.531 -37.844,-9.93 -52.871,-16.367 -15.032,-6.453 -56.633,-26.043 -57.969,-28.18 -1.34,-2.152 22.273,-27.641 37.304,-45.891 14.012,-17.031 36.231,-40.793 38.641,-41.332 2.414,-0.539 40.527,16.36 56.094,21.461 15.566,5.11 54.211,20.129 55.285,20.399 1.074,0.281 -24.953,38.39 -38.914,53.41 z m 140.348,-83.16 c -5.086,-4.047 -71.375,-11.481 -138.739,-33.207 -48.957,-15.793 -107.871,-48.114 -110.558,-46.774 -2.684,1.344 -23.895,37.633 -62,79.774 -38.106,42.136 -41.328,33.738 -45.879,59.5 -1.074,6.097 17.703,23.34 48.836,42.41 31.133,19.058 46.953,25.476 46.953,25.476 0,0 7.48,-4.636 23.086,-6.449 9.121,-1.051 39.133,7.973 49.113,17.731 13.152,12.89 19.59,27.652 25.762,26.019 3.457,-0.91 3.027,-6.347 3.301,-11.449 0.273,-5.09 20.859,-28.262 35.351,-36.84 6.192,-3.66 14.219,-0.539 27.098,-4.828 4.113,-1.371 22.648,-14.621 41.055,-33.023 27.91,-27.887 58.73,-76.661 56.621,-78.34"
           style="fill:#e51635;fill-opacity:1;fill-rule:nonzero;stroke:none"
           id="path3763"
           inkscape:connector-curvature="0" />
        <path
           d="m 2390.77,3208.76 c -9.61,25.62 -40.03,30.42 -52.84,32.03 -12.81,1.6 -63.26,-6.41 -162.55,-90.49 -99.3,-84.08 -129.73,-108.1 -156.95,-119.31 -27.23,-11.21 -56.06,-16.82 -52.85,-20.02 3.2,-3.2 50.46,-15.84 72.87,-18.42 48.85,-5.6 76.79,3.13 76.79,3.13 0,0 -2.32,74.55 35.32,106.58 65.13,55.44 180.96,-7.21 180.96,-7.21 0,0 42.52,47.88 52.85,70.46 12.81,28.03 6.4,43.25 6.4,43.25"
           style="fill:#fcd006;fill-opacity:1;fill-rule:nonzero;stroke:none"
           id="path3765"
           inkscape:connector-curvature="0" />
        <path
           d="m 3295.9,2680.47 c 0,0 -26.34,-7.68 -46.08,-13.17 -19.73,-5.48 -59.22,-14.25 -58.13,-16.44 1.09,-2.2 83.36,-58.14 111.88,-69.11 28.53,-10.97 78.98,-31.82 96.54,-36.21 17.55,-4.38 41.68,-7.67 41.68,-12.06 0,-4.39 -32.91,-17.55 -76.79,-36.2 -43.88,-18.65 -87.75,-42.78 -87.75,-46.07 0,-3.29 141.51,-16.45 209.52,-24.13 68.01,-7.68 154.66,-18.65 176.6,-21.94 21.93,-3.29 44.96,-9.88 43.87,-6.58 -1.1,3.29 -8.77,6.58 -31.81,16.45 -23.04,9.87 -110.79,63.62 -159.05,97.63 -48.26,34 -129.44,98.72 -161.25,121.76 -31.81,23.04 -59.23,46.07 -59.23,46.07"
           style="fill:#fcd006;fill-opacity:1;fill-rule:nonzero;stroke:none"
           id="path3767"
           inkscape:connector-curvature="0" />
        <path
           d="m 2877,3204.42 c -68.71,-37.87 -51.31,-82.75 -43.67,-89.17 7.64,-6.41 40,-39.69 109.93,4.28 69.93,43.97 49.95,74.37 42.75,85.5 -10.08,15.58 -42.72,35.92 -109.01,-0.61 z m -406.44,-566.56 c -5.61,10.41 -57,65.83 -149.48,124.71 0,0 106.49,-42.28 160.74,22.12 67.1,79.66 -24.19,166.43 -16.6,179.83 43.99,77.68 270.42,274.17 556.06,368.68 306.33,101.37 568.18,0.47 749.98,-149.27 271.11,-223.29 212.18,-467.65 212.18,-467.65 0,0 -149.76,113.7 -467.26,53.66 -310.25,-58.68 -327.91,-89.87 -580.94,-173.15 -171.52,-56.45 -280.27,-150.37 -478.84,-144.77 -366.26,10.33 -454.79,140.14 -454.79,140.14 0,0 5.55,46.45 -64.86,116.91 -17.22,17.23 -59.31,62.46 -93.74,43.23 -35.73,-19.94 66.47,-144.31 156.94,-216.2 58.46,-46.45 148.01,-82.45 228.22,-96.89 257.86,-46.45 405.99,-20.83 663.89,-26.43 182.58,-3.96 308.24,6.4 541.31,-14.49 136.77,-12.26 265.8,-37.56 265.8,-40.76 0,-3.21 -63.3,-21.47 -137.68,-46.44 -109.74,-36.85 -323.31,-119.58 -533.75,-139.34 -400.79,-37.63 -622.74,-11.2 -901.26,100.9 -258.64,104.09 -438.01,314.69 -416.34,348.03 7.03,10.83 24.76,4.32 24.76,4.32 0,0 54.46,-42.45 81.68,-64.07 27.23,-21.61 101.06,-63.83 119.37,-68.07 20.76,-4.8 37.19,1.36 36.83,6.41 -0.86,12.02 -2.89,9.48 -53.65,36.83 -71.32,38.45 -154.34,109 -187.51,149.04 -22.52,27.18 -123.54,173.93 -57.51,213.69 116.21,69.97 523.16,-113.58 555.18,-128.85 84.21,-40.2 162.2,-90.43 247.73,-149.73 0,0 -2.5,10.25 -6.46,17.61"
           style="fill:#fcd006;fill-opacity:1;fill-rule:nonzero;stroke:none"
           id="path3769"
           inkscape:connector-curvature="0" />
        <path
           d="m 2894.71,3178.77 c -21.07,-15.57 -43.36,-32.36 -30.84,-46.11 12.52,-13.74 44.58,0.3 58.32,7.02 13.74,6.72 41.32,29.02 32.06,43.06 -8.24,12.52 -38.48,11.61 -59.54,-3.97"
           style="fill:#fcd006;fill-opacity:1;fill-rule:nonzero;stroke:none"
           id="path3771"
           inkscape:connector-curvature="0" />
        <path
           d="M 3081.16,1031.83 C 3036.14,859.422 2933.08,797.18 2923.02,781.238 2915.16,768.809 2861.53,629.531 2807.51,562.09 2754.1,495.43 2705.03,453.57 2617.36,401.551 c -15.48,-9.192 -1.78,-21.301 -2.37,-29 C 2614.4,364.852 2594.56,265.262 2507.1,184.289 2373.31,60.4297 2306.38,68.1289 2296.9,58.6484 c -4.14,-4.1367 27.84,-27.2265 59.83,-24.2265 31.02,2.9179 129.76,49.5976 210.88,164.0901 64.56,91.129 76.55,160.82 77.6,165.769 2.36,11.25 5.91,14.797 16.58,7.778 4.25,-2.797 9.22,-17.84 14.22,-15.977 44.42,16.469 167.21,121.027 278.14,281.906 80.82,117.203 154.5,306.332 171.45,383.772 23.69,108.33 0.58,178.13 -24.89,185.91 -27.95,8.53 12.95,-51.4 -19.55,-175.84"
           style="fill:#fcd006;fill-opacity:1;fill-rule:nonzero;stroke:none"
           id="path3773"
           inkscape:connector-curvature="0" />
        <path
           d="m 2079.03,295.102 c -10.91,4.089 -54.65,8.519 -110.86,-56.262 -56.29,-64.871 -76.53,-147.9181 -72.42,-153.4181 4.11,-5.5 10.29,41.8791 94.05,105.3671 83.74,63.5 100.9,49.77 110.85,67.621 4.83,8.641 -5.14,30.512 -21.62,36.692"
           style="fill:#fcd006;fill-opacity:1;fill-rule:nonzero;stroke:none"
           id="path3775"
           inkscape:connector-curvature="0" />
        <path
           d="m 531.668,824.059 c -2.023,-0.5 -10.648,-21.789 -21.293,-28.379 -10.645,-6.602 -11.668,-1.52 -21.805,-12.168 -10.136,-10.66 -42.57,-58.364 -2.539,-92.801 21.805,-18.762 63.379,-13.18 79.61,-7.602 16.172,5.551 29.031,27.102 22.304,40.563 -6.086,12.168 -19.269,7.098 -28.39,19.777 -9.121,12.672 -11.141,27.903 -17.235,41.071 -6.093,13.179 -10.175,16.8 -9.132,22.82 2.031,11.66 -1.52,16.719 -1.52,16.719"
           style="fill:#fcd006;fill-opacity:1;fill-rule:nonzero;stroke:none"
           id="path3777"
           inkscape:connector-curvature="0" />
        <path
           d="m 399.332,703.391 c -16.73,-1.52 -44.621,-3.551 -96.34,-18.25 -51.719,-14.7 -125.742,-35.5 -125.742,-41.582 0,-4.989 106.875,-14.438 142.988,-13.688 48.164,1.008 103.946,23.32 111.543,43.609 7.598,20.282 -15.722,31.43 -32.449,29.911"
           style="fill:#fcd006;fill-opacity:1;fill-rule:nonzero;stroke:none"
           id="path3779"
           inkscape:connector-curvature="0" />
        <path
           d="m 626.996,543.16 c 0,0 -12.664,14.199 -15.203,14.199 -2.539,0 -19.258,-45.109 -37.52,-62.359 -18.261,-17.238 -42.589,-43.609 -52.226,-29.41 -9.641,14.199 34.98,39.039 49.18,70.48 14.199,31.43 24.336,52.231 25.351,86.7 1.016,34.48 2.02,32.468 -1.523,32.96 -3.547,0.5 -30.95,-12.64 -68.469,-12.128 -50.762,0.679 -51.688,15.168 -56.258,16.187 -4.57,1.012 -9.66,-24.82 -56.797,-43.059 -36.933,-14.3 -65.402,-12.21 -71.484,-19.308 -6.086,-7.102 -6.094,-44.07 6.582,-81.094 8.777,-25.648 37.012,-69.976 20.293,-75.59 -17.512,-5.867 -22.324,7.641 -40.059,50.711 -11.984,29.09 -12.675,37.012 -14.707,39.039 -2.031,2.032 -9.133,3.051 -12.676,1.012 -3.546,-2.031 -22.304,-24.34 -24.843,-28.391 -2.539,-4.058 12.676,-23.82 18.758,-33.461 6.085,-9.636 19.777,-34.468 13.691,-44.617 -6.082,-10.152 -10.145,-11.152 -13.691,-6.59 -3.543,4.559 -22.95,62.481 -80.614,95.321 C 148.852,551.309 72.9453,507.809 65.6992,444.84 57.3594,372.359 130.023,294.52 262.438,251.551 c 145.007,-47.063 230.691,11.25 230.691,11.25 0,0 134.875,-73.52 391.445,-47.16 262.566,26.968 352.376,92.289 381.306,114.089 27.94,21.051 31.42,33.969 27.88,32.961 -3.54,-1.019 -42.1,-22.832 -72.01,5.571 -53.68,50.968 -22.81,161.726 -27.88,165.789 -5.07,4.07 -18.85,-4.031 -34.48,-1.012 -26.37,5.09 -35.43,30.492 -40.56,29.922 -9.14,-1.012 -17.26,-45.121 -57.8,-41.07 -32.94,3.281 -48.18,34.488 -46.44,88.738 1.47,45.883 6.38,63.383 6.38,63.383 0,0 -20.78,0 -42.087,-2.524 -21.297,-2.527 -47.668,-7.609 -47.668,-7.609 0,0 32.453,-32.957 52.734,-60.848 20.291,-27.89 46.621,-69.812 44.121,-78.101 -1.53,-5.059 -28.902,6.101 -159.726,-33.09 -102.918,-30.828 -153.641,-66.27 -157.188,-67.289 -3.543,-1.012 -6.582,21.289 -20.781,42.59 -14.199,21.3 -28.406,41.578 -30.43,41.578 -2.019,0 -4.57,-50.047 -21.074,-82.637 -17.461,-34.492 -36.141,-59.742 -46.355,-51.723 -14.2,11.153 14.707,51.723 27.89,88.219 9.317,25.793 6.59,80.582 6.59,80.582"
           style="fill:#fcd006;fill-opacity:1;fill-rule:nonzero;stroke:none"
           id="path3781"
           inkscape:connector-curvature="0" />
        <path
           d="m 1291.36,301.641 c 0,0 -41.92,-31.231 -211.76,-85.141 C 990.418,188.18 883.629,170.289 712.934,179.711 560.57,188.109 513.629,223.602 501.137,225.91 489.594,228.051 421.539,171.711 252.594,217.781 116.09,255.012 89.9961,310.629 71.1758,319.602 66.6445,321.762 40.375,214.371 249.574,159.18 c 57.297,-15.121 165.957,-4.192 209.641,8.98 35.508,10.699 41.933,18.328 44.922,18.82 5.125,0.86 11.98,-0.011 11.98,-3.421 0,-3.418 0.43,-9.411 0.43,-9.411 0,0 106.965,-47.918 262.687,-45.347 155.723,2.57 320.896,33.801 442.396,91.121 60.57,28.578 64.61,34.226 66.75,38.937 2.14,4.711 5.13,18.379 4.7,24.371 -0.43,6 -1.72,18.411 -1.72,18.411"
           style="fill:#fcd006;fill-opacity:1;fill-rule:nonzero;stroke:none"
           id="path3783"
           inkscape:connector-curvature="0" />
        <path
           d="m 2296.12,517.719 c -3.4,-12.641 22.79,-15.649 31.27,-38.879 8.79,-24.039 5.21,-37.961 4.92,-40.66 -0.89,-8.489 -18.32,-42.45 0.89,-42.899 20.72,-0.48 39.41,76.367 13.41,110.367 -23.24,30.383 -47.36,23.684 -50.49,12.071 z m 623.69,354.703 c -0.96,16.598 -5.97,42.008 -13.24,41.476 C 2894.4,913 2902.63,856.539 2887.82,803.691 2856.2,690.738 2834.81,643.512 2774.47,571.082 2666.64,441.66 2553.37,411.789 2555.78,405.109 c 3.37,-9.328 26.59,-20.121 26.59,-20.121 0,0 1.5,-41.039 -46.44,-110.218 -90.84,-131.09 -203.63,-171.29 -237.81,-177.4887 -16.3,-2.961 -63.47,6.8907 -104.38,38.5587 -25.96,20.09 -47.75,62.859 -47.53,88.629 0.09,10.652 33.72,25.75 60.5,43.863 25.42,17.188 36.34,47.188 24.86,56.297 -13.34,10.609 -28.06,-22.457 -46.61,-34.18 -18.54,-11.719 -47.66,-26.699 -49.17,-21.39 -2.38,8.41 -1.64,17 -16.41,31.601 -11.79,11.68 -22.52,20.469 -22.52,20.469 0,0 26.86,6.391 52.82,35.101 20.39,22.559 22.61,71.879 0,111.829 -19.75,34.902 -64.08,61.043 -70.92,61.043 -6.84,0 -3.97,-14.122 0.91,-21.93 4.88,-7.813 12.06,-9.684 24.3,-19.383 12.11,-9.578 42.06,-48.98 32.18,-88.617 -6.45,-25.922 -29.42,-45.16 -76.22,-43.141 -37.11,1.59 -55.9,11.239 -89.39,32.348 -3.74,2.359 -9.58,-1.449 -3.73,-15.34 4.08,-9.687 21.56,-26.098 21.56,-26.098 0,0 -16.4,11.321 -21.28,14.25 -4.88,2.93 -8.47,6.219 -8.47,6.219 0,0 -9.69,19.93 -16.91,41.61 -5.54,16.64 -2.79,49.339 -2.79,49.339 0,0 40.48,-16.3 84.08,-36.539 51.19,-23.769 80.51,-27.39 94.51,-18.48 14,8.91 -20.22,46.922 -34.55,79.68 -12.07,27.582 -22.31,75.312 -16.45,76.968 7.74,2.203 20.1,-19.738 107.48,-62.699 29.91,-14.699 100.73,-43.68 110.59,-40.93 9.41,2.621 2.23,71.352 -30.64,157.922 -14.14,37.25 -68.99,87.731 -64.96,95.188 0.19,0.34 32.73,-0.18 32.73,-2.93 0,0.551 -0.21,-9.551 4.37,-13.711 3.25,-2.93 19.8,-10.328 30.9,-6.578 17.87,6.039 53.68,10.57 157.03,-3.648 96.88,-13.332 177.52,-77.231 178.77,-65.981 4.42,39.68 17.93,103.609 49,165.598 47.16,94.133 75.31,115.582 72.75,121.191 -7.67,16.82 -74.58,62.918 -147.7,81.711 -85.37,21.929 -134.05,13.129 -137.89,19.999 -3.23,5.77 48.04,81.92 119.24,93.88 56.67,9.51 83.36,-17.18 92.85,-13.47 3.28,1.28 -3.02,20.93 -18.44,32.66 -25.24,19.19 -59.05,17.01 -59.05,17.01 0,0 -4.75,116.62 83.36,201.8 51.13,49.43 177.66,77.1 281.9,15.36 140.98,-83.49 138.07,-190.99 113.35,-321.07 -19.41,-102.181 -87.45,-170.938 -120.14,-198.169 -7.67,-6.402 -1.22,22.699 -2.2,39.301"
           style="fill:#fcd006;fill-opacity:1;fill-rule:nonzero;stroke:none"
           id="path3785"
           inkscape:connector-curvature="0" />
        <path
           d="m 2354.52,3034.98 c 0,0 -104.28,87.98 -169.33,48.29 -68.02,-41.49 -23.81,-150.98 42.84,-216.96 65.3,-64.63 153.6,-100.55 199.87,-79.53 53.8,24.45 42.24,72.06 42.24,72.06 0,0 -29.58,-51.65 -80.93,-50.33 -79.57,2.04 -143.5,93.85 -143.5,93.85 0,0 12.37,4.52 39.44,8.84 21.66,3.46 40.13,9.52 40.13,9.52 0,0 -30.08,11.06 -54.45,17.65 -25.16,6.8 -50.97,15 -50.97,15 0,0 -24.01,50.01 14.96,82.29 43.53,36.05 119.7,-0.68 119.7,-0.68"
           style="fill:#ffffff;fill-opacity:1;fill-rule:nonzero;stroke:none"
           id="path3787"
           inkscape:connector-curvature="0" />
        <path
           d="m 2530.95,857.031 c -1.68,4.207 -32.78,15.981 -70.18,21.438 -37.4,5.461 -64.31,3.781 -68.92,1.261 -4.63,-2.519 -11.36,-14.289 -16.82,-27.742 -5.46,-13.437 -10.92,-36.129 -10.92,-38.656 0,-2.531 13.02,4.617 63.87,-9.672 50.86,-14.281 68.92,-15.121 72.28,-14.281 3.36,0.84 12.19,19.73 18.08,34.871 5.89,15.141 12.61,32.781 12.61,32.781"
           style="fill:#ffffff;fill-opacity:1;fill-rule:nonzero;stroke:none"
           id="path3789"
           inkscape:connector-curvature="0" />
        <path
           d="m 2858,1934.91 c 0,0 -8.55,0.84 -11.66,1.1 -3.75,0.31 -12.5,0.47 -12.5,0.47 0,0 -29.06,-16.88 -41.25,-22.19 -12.19,-5.31 -33.26,-17.99 -33.13,-21.25 0.32,-7.19 18.75,-6.56 67.5,-13.44 47.72,-6.73 79.08,-28.23 77.19,-45 -2.81,-25 -46.56,-66.44 -120.62,-84.88 -74.07,-18.44 -198.44,-43.56 -235,-43.87 -14.1,-0.12 -10,-9.37 -5,-12.19 5,-2.81 38.84,-28.43 40.09,-40.62 1.25,-12.19 -11.27,-32.54 -49.16,-43.44 -43.43,-12.5 -108.43,-14.06 -121.25,-13.44 -12.81,0.63 -12.81,-5 -11.25,-8.43 1.57,-3.44 28.44,-24.07 30.32,-40.94 1.87,-16.88 -6.1,-43.81 -124.07,-56.15 -183.12,-19.16 -241.87,-20.62 -242.18,-27.6 -0.32,-6.88 18.24,-4.47 100.31,-10.31 74.69,-5.32 201.83,7.95 251.25,30.62 76.25,35 34.18,87.24 34.06,90.31 -0.31,8.75 81.88,-0.31 104.38,6.57 32.63,9.97 63.62,43.36 54.68,71.25 -7.81,24.37 -20.93,30.62 -21.56,33.12 -0.62,2.5 75.66,-1.72 172.19,20.31 57.5,13.13 137.5,51.57 162.5,101.88 20.03,40.31 -9.69,74.69 -52.19,85.62 -42.5,10.94 -57.89,9.11 -59.06,11.25 -1.88,3.44 12.25,7.36 19.06,11.57 11.88,7.34 26.35,19.68 26.35,19.68"
           style="fill:#ffffff;fill-opacity:1;fill-rule:nonzero;stroke:none"
           id="path3791"
           inkscape:connector-curvature="0" />
        <path
           d="m 1371.49,1925.38 c 0,0 6.15,0.47 14.07,0.47 8.12,0 19.37,-0.62 19.37,-0.62 0,0 -32.76,-28.3 -16.8,-52.6 15.97,-24.3 67.68,-25.97 92.69,-26.94 24.29,-0.93 33.24,4.13 35.52,-0.23 2.62,-5 -8.26,-9.38 -14.06,-20.97 -5.73,-11.43 -1.86,-37.89 48.37,-47.17 85.1,-15.74 159.7,-16.46 174,-17.17 14.3,-0.72 21.21,-4.05 21.21,-5.72 -0.01,-5.01 -2.99,-1.49 -54.82,-5.95 -44.32,-3.82 -123.87,-4.55 -161.32,2.86 -49.33,9.76 -57.94,28.11 -58.88,40.74 -0.74,10.03 3.11,28.83 1.91,30.26 -1.19,1.44 -82.34,-17.49 -107.96,20.5 -33.13,49.09 6.7,82.54 6.7,82.54"
           style="fill:#ffffff;fill-opacity:1;fill-rule:nonzero;stroke:none"
           id="path3793"
           inkscape:connector-curvature="0" />
        <path
           d="m 1891.86,809.832 c -52.06,-100.891 -64.22,-170.41 -64.97,-174.152 -0.91,-4.598 -23.9,27.691 -26.26,76.48 -3.68,76.469 16.13,149.731 0,155.25 -15.3,5.25 -79.23,-119.789 -96.74,-154.34 -17.51,-34.55 -92.14,-168.16 -80.17,-178.3 13.67,-11.59 70.03,96.289 85.69,122.089 14.97,24.653 57.13,99.973 57.13,99.973 0,0 -1.37,-82.473 12.44,-109.652 13.82,-27.18 32.72,-62.192 51.61,-58.508 18.88,3.68 6.44,16.129 16.58,46.539 10.13,30.41 62.21,146.969 80.16,177.379 17.96,30.41 85.69,129.922 83.85,145.129 -1.5,12.359 -71.89,-55.981 -119.32,-147.887"
           style="fill:#ffffff;fill-opacity:1;fill-rule:nonzero;stroke:none"
           id="path3795"
           inkscape:connector-curvature="0" />
        <path
           d="m 952.094,1278.77 c -22.117,39.9 -88.438,170.44 -92.391,170.83 -3.957,0.39 -6.797,-63.56 -7.187,-90.82 -0.391,-27.26 -1.164,-64.39 -3.145,-65.59 -1.984,-1.19 -40.715,35.97 -68.367,63.23 -27.66,27.25 -62.426,64 -69.543,80.2 -7.121,16.2 -15.813,42.23 -22.918,40.24 -9.875,-2.77 -11.848,-33.13 -11.059,-72.64 0.793,-39.51 3.164,-51.77 -0.398,-54.13 -3.566,-2.36 -47.598,18.52 -83.371,35.17 -45.039,20.94 -103.914,58.87 -107.469,58.08 -4.316,-0.96 40.301,-58.88 55.711,-92.06 18.176,-39.13 34.379,-75.07 29.238,-77.05 -5.136,-1.98 -29.226,9.09 -59.656,19.76 -30.43,10.66 -62.824,22.91 -65.195,20.14 -2.375,-2.76 36.668,-45.83 54.851,-74.28 18.184,-28.44 24.368,-34.04 24.368,-37.99 0,-3.96 -4.942,-9.02 -8.887,-9.42 -3.946,-0.4 -28.848,-1.98 -48.996,-2.37 -20.145,-0.39 -43.055,1.58 -45.828,-0.79 -2.774,-2.37 37.429,-49.06 68.347,-79.42 43.86,-43.06 79.824,-60.04 81.008,-62.03 1.18,-1.98 -21.328,-14.03 -48.996,-26.86 -60.457,-28.06 -71.914,-23.31 -73.094,-28.06 -0.812,-3.25 51.094,-18.988 88.504,-32.07 48.594,-16.981 88.508,-19.68 99.172,-20.871 10.664,-1.188 -9.895,-11.047 -16.602,-15.008 -6.711,-3.949 -19.757,-9.461 -19.757,-12.25 0,-5.531 89.14,-49.563 163.769,-55.973 78.242,-6.718 147.863,3.582 185.918,23.571 7.512,3.953 7.121,9.882 -0.391,12.64 -9.511,3.5 -22.156,-14.121 -134.355,-11.449 -99.957,2.371 -171.473,29.23 -174.637,32.789 -2.715,3.051 27.254,13.441 40.305,20.152 13.043,6.719 29.234,11.86 27.652,18.969 -1.765,7.949 -29.121,6.391 -57.285,9.481 -35.957,3.961 -128.406,27.281 -130.39,29.64 -1.981,2.36 27.656,16.599 42.277,24.889 14.621,8.29 28.848,17.39 33.191,18.18 4.348,0.79 11.789,4.28 12.246,7.9 1.192,9.47 -7.898,11.05 -12.246,13.82 -4.343,2.76 -19.48,16.71 -67.558,54.53 -29.637,23.31 -57.684,51.76 -59.266,54.53 -1.582,2.76 24.883,3.54 45.43,4.33 20.547,0.79 31.23,1.99 36.758,4.75 5.527,2.76 11.445,5.13 11.054,11.85 -0.39,6.71 -10.273,20.93 -27.648,43.85 -12.754,16.83 -37.149,42.3 -36.356,44.66 0.789,2.36 18.563,-4.74 42.274,-11.85 23.711,-7.12 52.023,-20.48 58.742,-15.35 6.719,5.14 3.809,27.64 -12.902,60.78 -23.321,46.23 -49.063,78.55 -46.297,80.53 2.761,1.99 43.926,-24.43 71.191,-39.44 27.266,-15.01 73.426,-39.84 78.563,-39.05 5.136,0.79 14.297,20.07 13.105,37.86 -1.191,17.78 -4.344,50.17 -2.371,51.37 1.973,1.19 49.773,-55.32 71.512,-74.68 21.738,-19.37 44.238,-37.14 54.914,-45.83 10.672,-8.69 27.656,-25.3 31.609,-28.85 3.957,-3.55 12.649,-2.77 14.621,4.35 1.973,7.11 0.391,42.29 0,54.14 -0.39,11.84 0.782,45.04 2.762,46.62 1.984,1.58 22.531,-39.52 42.676,-68.75 13.887,-20.15 44.258,-68.76 52.953,-83.38 8.687,-14.62 22.711,-33.67 27.262,-30.82 12.654,7.91 -26.161,66.95 -47.422,105.3"
           style="fill:#ffffff;fill-opacity:1;fill-rule:nonzero;stroke:none"
           id="path3797"
           inkscape:connector-curvature="0" />
        <path
           d="m 808.063,619.551 c -6.446,8.32 -15.833,17.98 -17.977,19.328 -2.152,1.351 -18.781,-7.258 -26.301,-9.668 -7.519,-2.41 -30.058,-10.461 -31.672,-12.34 -1.562,-1.832 12.344,-15.84 17.18,-22.281 4.832,-6.43 20.398,-23.891 23.348,-24.149 1.195,-0.113 19.863,8.047 30.058,11.27 10.196,3.219 19.594,7.519 22.539,10.469 1.387,1.39 -10.73,19.05 -17.175,27.371"
           style="fill:#ffffff;fill-opacity:1;fill-rule:nonzero;stroke:none"
           id="path3799"
           inkscape:connector-curvature="0" />
        <path
           d="m 988.922,899.512 c -6.465,3.238 -24.434,39.07 -19.395,73.867 5.039,34.801 25.047,101.041 30.943,120.511 6,19.84 12.72,44.53 16.76,45.04 4.03,0.5 17.4,-18.73 17.4,-25.2 0,-8.57 -22.02,-69.57 -27.06,-93.78 -5.04,-24.212 -18.648,-120.438 -18.648,-120.438"
           style="fill:#ffffff;fill-opacity:1;fill-rule:nonzero;stroke:none"
           id="path3801"
           inkscape:connector-curvature="0" />
        <path
           d="m 2673.25,101.52 0,-21.2505 13.63,0 c 5.79,0 10.01,0.8516 12.68,2.5703 2.67,1.711 4,4.4297 4,8.1485 0,3.8828 -1.28,6.6211 -3.87,8.1836 -2.59,1.5581 -7.14,2.3481 -13.66,2.3481 l -12.78,0 z m 0,-60.6216 -11.25,0 0,69.9996 23.95,0 c 8.46,0 14.44,-0.668 17.94,-2.039 3.49,-1.347 6.3,-3.609 8.4,-6.777 2.09,-3.1836 3.15,-6.5507 3.15,-10.1328 0,-5.3594 -1.86,-9.8906 -5.55,-13.5781 -3.69,-3.6914 -8.43,-5.7617 -14.24,-6.2305 2.6,-1.0898 5.02,-2.8789 7.31,-5.3789 2.27,-2.5 5.19,-6.5898 8.75,-12.2734 l 8.42,-13.5899 -13.75,0 -6.1,10.9336 c -4.41,7.8594 -7.88,12.9493 -10.39,15.2696 -2.52,2.3203 -5.88,3.4882 -10.08,3.4882 l -6.56,0 0,-29.6914 z m 14.57,89.3716 c -14.78,0 -27.41,-5.301 -37.9,-15.911 -10.49,-10.621 -15.73,-23.3902 -15.73,-38.3473 0,-15 5.23,-27.8008 15.68,-38.3398 10.47,-10.5625 23.12,-15.8321 37.95,-15.8321 14.79,0 27.4,5.2813 37.86,15.8711 10.46,10.5782 15.7,23.3594 15.7,38.3008 0,14.9571 -5.25,27.7263 -15.74,38.3473 -10.48,10.61 -23.09,15.911 -37.82,15.911 z m 0,10.628 c 11.56,0 22.35,-2.918 32.37,-8.738 10.01,-5.82 17.92,-13.738 23.73,-23.75 5.8,-10.0116 8.71,-20.8084 8.71,-32.3983 0,-11.6406 -2.89,-22.4609 -8.67,-32.4414 -5.79,-9.9883 -13.68,-17.8789 -23.7,-23.6719 -10.01,-5.789 -20.82,-8.6875 -32.44,-8.6875 -11.67,0 -22.52,2.8789 -32.52,8.6407 -10.02,5.7773 -17.91,13.6679 -23.69,23.6797 -5.78,10.0078 -8.67,20.8398 -8.67,32.4804 0,11.6485 2.9,22.4766 8.71,32.4883 5.8,10.012 13.71,17.922 23.73,23.711 10.02,5.789 20.83,8.687 32.44,8.687"
           style="fill:#1967b8;fill-opacity:1;fill-rule:nonzero;stroke:none"
           id="path3803"
           inkscape:connector-curvature="0" />
        <path
           d="m 1996.62,1641.4 c 0,0 -19.64,-0.59 -19.85,-0.59 -0.31,0 -1.88,0.06 -1.88,0.06 -39.43,1.68 -64.99,2.02 -79.48,2.02 -17.57,0 -26.48,-6.06 -26.48,-18.03 0,-5.4 2.32,-17.98 23.68,-17.98 8.38,0 18.71,-0.82 22.59,-1.78 16.77,-3.57 20.31,-8.53 21.55,-29.63 1.39,-22.27 1.39,-41.62 1.39,-149.05 l 0,-88.29 c 0,-73.3 -2.77,-132.14 -37.52,-166.89 -31.39,-31.34 -72.87,-34.73 -89.25,-34.73 -24.2,0 -52.7,3.13 -80.85,26.28 -30.55,24.94 -50.88,62.5 -50.88,164.75 l 0,98.88 c 0,107.43 0,126.78 1.39,149 1.39,24.07 6.38,27.62 16.69,29.53 8.01,1.32 11.6,1.93 18.29,1.93 21.35,0 23,13.75 23,17.98 0,18.03 -20.49,18.03 -27.22,18.03 l -51.92,-1.21 -34.94,-0.89 -135.6,-0.05 -40.27,1.18 -32.66,0.97 c -19.99,0 -22.99,-11.3 -22.99,-18.03 0,-14.4 13.3,-17.35 18.32,-18.46 0.11,-0.02 0.35,-0.08 0.56,-0.13 0.12,-0.39 0.26,-1.08 0.26,-2.68 0,-7.13 -15.76,-25.66 -29.67,-42.05 l -2.97,-3.49 c -12.11,-14.18 -54.11,-57.79 -91.15,-96.26 -15.18,-15.74 -29.07,-30.17 -39.84,-41.48 0,1.63 0,5.58 0,5.58 0,107.68 0,127.1 1.39,149.41 1.38,24.15 6.38,27.71 16.68,29.6 7.82,1.32 11.49,1.94 17.68,1.94 20.55,0 21.6,15.01 21.6,18.02 0,11.97 -8.93,18.03 -26.51,18.03 l -50.13,-1.21 -35.58,-0.94 -31.28,0.76 c -20.17,0.64 -45.24,1.39 -67.87,1.39 -27.2,0 -27.2,-13.57 -27.2,-18.03 0,-5.43 2.3,-18.02 23.66,-18.02 10.1,0 20.74,-0.76 24.79,-1.79 16.66,-3.54 20.42,-8.79 21.68,-29.72 1.39,-22.37 1.39,-41.76 1.39,-149.44 l 0,-124.63 c 0,-64.61 0,-120.39 -3.47,-149.41 -2.79,-20.21 -5.75,-27.81 -11.26,-28.92 -8.08,-1.81 -15.38,-2.63 -23.2,-2.63 -21.33,0 -22.98,-13.23 -22.98,-17.28 0,-5.64 2.5,-18.73 25.81,-18.73 16.29,0 37.55,0.67 56.3,1.29 l 32.93,0.84 31.8,-0.77 c 20.6,-0.61 46.23,-1.36 70.19,-1.36 23.86,0 25.08,15.59 25.08,18.73 0,8.34 -6.54,17.28 -20.89,17.28 -8.65,0 -23.87,1.41 -33.02,2.75 -3.93,0.62 -13.67,2.21 -15.48,27.51 -2.11,30.02 -2.11,85.94 -2.11,150.7 0,0 0,18.31 0,36.09 16.77,-18.5 269.76,-297.93 269.76,-297.93 l 0.5,-0.42 c 31.36,-27.8 52.76,-45.059 94.3,-48.898 15.37,-1.461 28.39,-1.461 49.91,-1.461 l 61.63,0 c 7.84,0 28.67,0 28.67,18.739 0,8.64 -6.44,17.33 -20.88,17.33 -5.05,0 -18.93,3.4 -42.72,12.91 -33.99,13.23 -66.28,41.54 -93.41,67.54 -0.55,0.58 -81.99,89.02 -81.99,89.02 -0.02,0.05 -159.07,171.1 -195.56,210.32 33.02,34.17 123.67,125.18 144.75,144.51 30.07,27.56 63.31,55.74 81.95,55.74 8.95,0 17.14,-2.24 18.7,-29.28 1.42,-22.29 1.42,-41.65 1.42,-149.05 l 0,-103.09 c 0,-92.61 21.19,-154.85 66.74,-195.84 57.18,-51.75 132.41,-51.75 164.56,-51.75 42.86,0 99.15,6.11 154.49,53.69 62.57,53.59 71.16,138.08 71.16,221.42 l 0,75.57 c 0,107.43 0,126.78 1.41,149 1.35,24.07 6.34,27.62 16.62,29.53 8.04,1.32 11.65,1.93 18.34,1.93 21.23,0 24.37,11.28 24.37,17.98 0,11.97 -8.89,18.03 -26.45,18.03 -17.97,0 -42.58,-0.86 -60.57,-1.49"
           style="fill:#ffffff;fill-opacity:1;fill-rule:nonzero;stroke:none"
           id="path3805"
           inkscape:connector-curvature="0" />
      </g>
    </g>
    <g
       transform="matrix(0.02698243,0,0,-0.02698243,749.41666,456.1119)"
       id="g3508">
      <path
         inkscape:connector-curvature="0"
         id="path3510"
         style="fill:#1864b3;fill-opacity:1;fill-rule:nonzero;stroke:none"
         d="M 1244.45,1841.37 C 1170.11,1773.23 818.742,1420.2 739.145,1335.95 L 1410.05,614.512 1682.24,319.391 c 94.6,-90.653 204.35,-186.102 321.78,-231.8519 70.23,-28.0899 127.33,-45.3907 155.44,-45.3907 16.4,0 30.47,-4.7695 30.47,-18.7187 C 2189.93,7.08984 2178.15,0 2133.7,0 L 1930.1,0 C 1860.04,0 1817.83,0 1768.7,4.62891 1642.42,16.3594 1579.28,67.8516 1478.64,156.75 l -919.499,1015.48 -25.758,35.06 -11.742,0 0,-212.911 c 0,-215.207 0,-400.039 7.089,-500.617 4.653,-65.442 25.758,-116.961 84.192,-126.371 32.734,-4.68 84.187,-9.371 114.539,-9.371 18.773,0 30.465,-6.911 30.465,-18.629 0,-16.34 -18.781,-23.403 -44.367,-23.403 -131.102,0 -278.52,7.063 -336.977,7.063 -53.836,0 -201.227,-7.063 -294.8281,-7.063 -30.4101,0 -46.8086,7.063 -46.8086,23.403 0,11.718 9.3633,18.629 37.4414,18.629 35.1173,0 63.1993,4.691 84.2503,9.371 46.801,9.41 58.484,60.929 67.875,128.75 11.715,98.199 11.715,283.031 11.715,498.238 l 0,411.761 c 0,355.69 0,421.16 -4.707,496.04 -4.649,79.49 -23.375,117.01 -100.641,133.35 -18.719,4.68 -58.4923,7.01 -91.2774,7.01 -25.7578,0 -39.6016,4.71 -39.6016,21.08 0,16.36 16.3672,21.07 51.3438,21.07 124.0112,0 271.4022,-7.12 327.5352,-7.12 56.16,0 203.578,7.12 283.172,7.12 32.875,0 49.074,-4.71 49.074,-21.07 0,-16.37 -14.016,-21.08 -32.793,-21.08 -23.375,0 -37.5,-2.33 -65.41,-7.01 -63.199,-11.65 -81.918,-51.48 -86.629,-133.35 -4.652,-74.88 -4.652,-140.35 -4.652,-496.04 l 0,-102.91 11.742,0 c 79.539,86.56 421.086,435.15 488.967,514.71 65.53,77.19 117.03,135.65 117.03,175.41 0,25.84 -9.44,42.18 -32.9,46.86 -20.99,4.66 -30.29,9.27 -30.29,23.41 0,16.36 11.69,21.07 37.41,21.07 49.05,0 177.68,-7.12 240.91,-7.12 l 448.54,0.17 c 55.96,0 203.01,6.95 286.97,6.95 35.01,0 51.38,-4.71 51.38,-21.07 0,-16.26 -14.05,-20.94 -37.44,-20.94 -25.62,0 -39.63,-2.38 -67.57,-7 -63,-11.72 -81.78,-51.35 -86.44,-133.04 -4.65,-74.66 -4.65,-140.01 -4.65,-494.69 l 0,-326.69 c 0,-338.369 67.68,-480.658 182.05,-574.061 104.95,-86.371 212.35,-95.679 291.62,-95.679 102.78,0 228.72,32.679 322.09,126.011 128.41,128.289 135.37,338.34 135.37,578.709 l 0,291.71 c 0,354.68 0,420.03 -4.65,494.69 -4.69,79.36 -23.32,116.69 -100.42,133.04 -18.64,4.62 -58.26,7 -83.91,7 -25.75,0 -39.76,4.68 -39.76,20.94 0,16.36 16.45,21.07 49.01,21.07 119.02,0 266.02,-6.95 268.46,-6.95 27.91,0 174.92,6.95 266,6.95 32.65,0 49.02,-4.71 49.02,-21.07 0,-16.26 -14.08,-20.94 -42.06,-20.94 -25.71,0 -39.69,-2.38 -67.66,-7 -63.03,-11.72 -81.69,-51.35 -86.35,-133.04 -4.65,-74.66 -4.65,-140.01 -4.65,-494.69 l 0,-249.73 c 0,-258.982 -25.66,-534.361 -221.73,-702.329 C 2692.11,313.488 2524.07,287.82 2372.37,287.82 c -123.73,0 -347.7,7.012 -518,161.008 -119.09,107.301 -207.7,280.043 -207.7,618.472 l 0,340.65 c 0,354.68 0,420.03 -4.77,494.69 -4.59,79.36 -27.68,133.04 -100.29,133.04 -72.65,0 -176.43,-83.63 -297.16,-194.31" />
      <path
         inkscape:connector-curvature="0"
         id="path3512"
         style="fill:#1864b3;fill-opacity:1;fill-rule:nonzero;stroke:none"
         d="m 3008.26,359.969 8.08,0 c 9.18,0 16.98,3.34 16.98,11.972 0,6.118 -4.45,12.25 -16.98,12.25 -3.62,0 -6.13,-0.281 -8.08,-0.562 l 0,-23.66 z m 0,-38.699 -11.13,0 0,69.878 c 5.84,0.84 11.41,1.672 19.76,1.672 10.58,0 17.54,-2.23 21.71,-5.289 4.18,-3.062 6.41,-7.801 6.41,-14.48 0,-9.192 -6.12,-14.75 -13.64,-16.981 l 0,-0.558 c 6.12,-1.114 10.3,-6.672 11.69,-16.981 1.68,-10.859 3.35,-15.043 4.46,-17.261 l -11.7,0 c -1.67,2.218 -3.34,8.628 -4.73,17.82 -1.67,8.91 -6.13,12.25 -15.04,12.25 l -7.79,0 0,-30.07 z m 11.69,89.371 c -27.56,0 -50.11,-23.672 -50.11,-52.903 0,-29.777 22.55,-53.168 50.39,-53.168 27.85,-0.289 50.11,23.391 50.11,52.899 0,29.5 -22.26,53.172 -50.11,53.172 l -0.28,0 z m 0.28,9.75 c 34.24,0 61.53,-27.84 61.53,-62.653 0,-35.359 -27.29,-62.918 -61.81,-62.918 -34.24,0 -62.08,27.559 -62.08,62.918 0,34.813 27.84,62.653 62.08,62.653 l 0.28,0" />
    </g>
  </g>
</svg>
